<?xml version="1.0" encoding="UTF-8"?>
<!DOCTYPE svg PUBLIC "-//W3C//DTD SVG 1.1//EN" "http://www.w3.org/Graphics/SVG/1.1/DTD/svg11.dtd">
<!-- Creator: CorelDRAW X8 -->
<svg xmlns="http://www.w3.org/2000/svg" xml:space="preserve" width="155.209mm" height="72.688mm" version="1.1" style="shape-rendering:geometricPrecision; text-rendering:geometricPrecision; image-rendering:optimizeQuality; fill-rule:evenodd; clip-rule:evenodd"
viewBox="0 0 15521 7269"
 xmlns:xlink="http://www.w3.org/1999/xlink">
 <defs>
  <style type="text/css">
   <![CDATA[
    .fil1 {fill:#373435}
    .fil6 {fill:#373435}
    .fil2 {fill:#FFCC29}
    .fil0 {fill:#373435;fill-rule:nonzero}
    .fil5 {fill:#373435;fill-rule:nonzero}
    .fil4 {fill:url(#id0)}
    .fil3 {fill:url(#id1)}
   ]]>
  </style>
  <linearGradient id="id0" gradientUnits="userSpaceOnUse" x1="2493.59" y1="3439.85" x2="2493.59" y2="1250.01">
   <stop offset="0" style="stop-opacity:1; stop-color:#373435"/>
   <stop offset="0.0117647" style="stop-opacity:1; stop-color:#393737"/>
   <stop offset="0.509804" style="stop-opacity:1; stop-color:#FFCC00"/>
   <stop offset="1" style="stop-opacity:1; stop-color:#FFCC00"/>
  </linearGradient>
  <radialGradient id="id1" gradientUnits="userSpaceOnUse" gradientTransform="matrix(1.9303 3.24069E-16 -3.24071E-16 1.9303 -2348 -1428)" cx="2523.55" cy="1534.6" r="1500.42" fx="2523.55" fy="1534.6">
   <stop offset="0" style="stop-opacity:1; stop-color:#FEFEFE"/>
   <stop offset="0.639216" style="stop-opacity:1; stop-color:#EEB32D"/>
   <stop offset="0.831373" style="stop-opacity:1; stop-color:#393737"/>
   <stop offset="1" style="stop-opacity:1; stop-color:#373435"/>
  </radialGradient>
 </defs>
 <g id="Capa_x0020_1">
  <metadata id="CorelCorpID_0Corel-Layer"/>
  <g id="_1254202432">
   <g>
    <path class="fil0" d="M5804 4853l0 -22 273 0 0 21c-34,2 -57,9 -68,23 -12,14 -17,44 -17,88l0 306c0,84 14,146 43,186 29,41 74,61 134,61 62,0 109,-22 143,-64 34,-43 51,-103 51,-181l0 -306c0,-43 -6,-73 -19,-88 -12,-15 -36,-23 -71,-24l0 -22 216 0 0 21c-31,2 -52,11 -64,27 -11,16 -17,45 -17,87l0 292c0,101 -22,177 -65,229 -44,51 -108,77 -192,77 -44,0 -82,-6 -117,-19 -34,-13 -62,-33 -84,-57 -19,-23 -33,-51 -42,-85 -9,-34 -13,-79 -13,-134l0 -268c0,-63 -7,-104 -19,-122 -12,-17 -36,-26 -72,-26zm726 692l0 -20c25,-1 42,-6 51,-16 8,-9 12,-31 12,-65l0 -260c0,-32 -3,-51 -9,-57 -6,-7 -18,-10 -38,-10l-16 0 0 -20c16,-3 34,-8 56,-16 21,-7 50,-20 85,-36l0 81c26,-27 50,-47 73,-59 23,-13 46,-19 70,-19 38,0 66,14 82,42 16,28 24,78 24,149l0 222c0,24 4,40 13,49 8,9 23,14 45,15l0 20 -200 0 0 -20c26,-1 43,-6 52,-15 9,-10 13,-28 13,-55l0 -217c0,-46 -6,-79 -17,-99 -12,-20 -31,-29 -58,-29 -18,0 -35,4 -51,13 -16,9 -31,23 -46,41l0 285c0,30 5,50 13,60 8,10 24,15 48,16l0 20 -202 0zm488 0l1 -20c25,-1 42,-6 51,-16 8,-9 12,-31 12,-65l0 -265c0,-32 -3,-51 -8,-58 -6,-6 -18,-9 -36,-9l-15 0 0 -20c17,-3 36,-8 59,-16 24,-8 50,-19 79,-31l0 404c0,31 4,51 12,61 9,10 24,15 48,15l0 20 -203 0zm59 -683c0,-16 5,-30 14,-41 10,-11 22,-17 36,-17 13,0 25,6 35,17 9,12 14,25 14,41 0,16 -5,30 -14,41 -10,11 -22,17 -35,17 -14,0 -26,-6 -35,-17 -10,-11 -15,-25 -15,-41zm351 695l-153 -409c-10,-28 -19,-46 -27,-55 -7,-9 -16,-14 -27,-14l-2 0 0 -19 189 0 0 19c-21,0 -36,3 -44,9 -8,6 -12,16 -12,30 0,4 1,9 2,16 1,6 4,13 6,21l95 263 87 -252 2 -5c8,-25 12,-42 12,-50 0,-11 -4,-19 -11,-24 -8,-4 -21,-7 -38,-8l-1 -19 134 0 0 19c-12,1 -21,6 -27,13 -7,7 -15,25 -25,52l-146 413 -14 0zm606 -195l16 11c-25,62 -53,109 -86,139 -32,30 -70,45 -112,45 -53,0 -96,-22 -129,-67 -33,-45 -50,-104 -50,-177 0,-79 18,-144 54,-193 36,-49 82,-73 140,-73 47,0 84,17 113,51 29,34 45,81 48,141l-288 0 0 11c0,68 14,123 42,164 27,41 64,61 109,61 29,0 55,-9 78,-28 24,-18 45,-47 65,-85zm-291 -154l172 0c11,0 18,-1 21,-3 2,-3 3,-8 3,-15 0,-32 -8,-58 -25,-79 -17,-21 -39,-32 -65,-32 -29,0 -53,12 -72,34 -19,23 -30,54 -34,95zm354 337l0 -20c28,-2 46,-9 56,-21 10,-12 15,-33 15,-65l0 -250c0,-30 -4,-50 -11,-58 -7,-9 -21,-13 -43,-13l-14 0 0 -20c33,-11 61,-21 85,-29 23,-9 43,-17 60,-24l0 96c21,-31 40,-54 58,-70 18,-15 35,-22 51,-22 15,0 27,5 37,14 9,10 14,23 14,38 0,15 -3,26 -10,35 -6,9 -15,13 -25,13 -11,0 -22,-5 -34,-15 -13,-10 -21,-14 -26,-14 -9,0 -19,5 -28,15 -10,10 -22,27 -37,51l0 263c0,29 5,48 16,58 10,10 30,16 61,18l0 20 -225 0zm359 6l-5 -171 17 0c10,48 25,85 47,111 21,26 46,39 75,39 23,0 42,-7 55,-22 14,-14 21,-34 21,-57 0,-17 -4,-33 -13,-46 -10,-14 -26,-28 -49,-44l-78 -53c-27,-17 -46,-37 -58,-57 -13,-21 -19,-46 -19,-73 0,-39 12,-71 35,-96 23,-25 53,-37 89,-37 17,0 36,3 55,9 19,6 30,9 32,9 4,0 8,-1 11,-4 3,-3 5,-8 7,-13l14 0 6 147 -17 0c-6,-38 -18,-68 -36,-89 -18,-21 -39,-32 -65,-32 -21,0 -37,7 -50,19 -12,13 -19,29 -19,48 0,18 5,33 15,47 9,14 25,28 46,42l78 49c26,17 46,36 59,58 13,22 19,47 19,77 0,41 -12,76 -36,103 -24,28 -55,41 -92,41 -18,0 -39,-4 -63,-11 -24,-7 -39,-11 -45,-11 -7,0 -11,2 -15,4 -3,3 -5,7 -6,13l-15 0zm322 -6l0 -20c26,-1 43,-6 51,-16 9,-9 13,-31 13,-65l0 -265c0,-32 -3,-51 -9,-58 -6,-6 -18,-9 -36,-9l-14 0 0 -20c16,-3 36,-8 59,-16 23,-8 49,-19 78,-31l0 404c0,31 4,51 13,61 8,10 24,15 47,15l0 20 -202 0zm58 -683c0,-16 5,-30 15,-41 9,-11 21,-17 35,-17 14,0 25,6 35,17 10,12 14,25 14,41 0,16 -4,30 -14,41 -10,11 -21,17 -35,17 -14,0 -25,-6 -35,-17 -10,-11 -15,-25 -15,-41zm499 594l0 -268c0,-28 -11,-54 -32,-77 -21,-23 -44,-35 -71,-35 -36,0 -65,18 -88,52 -22,34 -33,79 -33,135 0,71 12,128 37,170 26,42 59,63 100,63 15,0 30,-3 45,-10 14,-7 28,-17 42,-30zm0 101l0 -67c-20,21 -41,38 -62,48 -21,10 -44,16 -68,16 -52,0 -94,-22 -126,-65 -31,-42 -46,-100 -46,-172 0,-80 18,-145 55,-195 36,-50 83,-75 139,-75 22,0 41,4 59,12 19,8 35,20 49,36l0 -165c0,-26 -4,-43 -11,-51 -8,-9 -23,-13 -44,-13l-10 0 0 -15c30,-8 56,-16 80,-25 24,-8 45,-17 62,-26l0 634c0,24 2,39 7,45 5,6 15,10 29,10l15 0 0 17c-24,8 -63,23 -116,46l-12 5zm424 -111l0 -185c-56,22 -97,45 -122,69 -25,24 -38,52 -38,83 0,26 7,47 21,64 14,18 31,26 52,26 17,0 34,-5 50,-15 16,-11 28,-24 37,-42zm3 42c-25,22 -49,39 -71,50 -23,10 -44,16 -66,16 -31,0 -56,-11 -75,-31 -18,-21 -27,-49 -27,-84 0,-43 16,-80 49,-110 34,-30 96,-62 187,-95l0 -56c0,-39 -5,-66 -16,-82 -11,-15 -30,-23 -57,-23 -19,0 -36,6 -49,17 -14,12 -21,25 -21,40 0,2 1,6 2,14 1,8 2,14 2,20 0,13 -4,23 -11,32 -8,8 -18,12 -30,12 -12,0 -22,-4 -30,-13 -7,-9 -11,-22 -11,-37 0,-29 15,-55 44,-77 30,-22 66,-32 108,-32 50,0 87,12 110,38 23,25 35,65 35,119l0 239c0,18 2,31 6,39 4,7 11,11 20,11 7,0 13,-1 18,-4 5,-3 11,-8 18,-15l11 14c-13,20 -27,36 -43,47 -16,11 -32,17 -47,17 -15,0 -27,-6 -36,-16 -8,-10 -15,-27 -20,-50zm494 -32l0 -268c0,-28 -10,-54 -31,-77 -21,-23 -45,-35 -72,-35 -36,0 -65,18 -88,52 -22,34 -33,79 -33,135 0,71 13,128 38,170 25,42 58,63 100,63 14,0 29,-3 44,-10 15,-7 29,-17 42,-30zm0 101l0 -67c-20,21 -41,38 -62,48 -21,10 -44,16 -67,16 -53,0 -95,-22 -126,-65 -31,-42 -47,-100 -47,-172 0,-80 18,-145 55,-195 37,-50 83,-75 140,-75 21,0 41,4 59,12 18,8 34,20 48,36l0 -165c0,-26 -4,-43 -11,-51 -8,-9 -22,-13 -44,-13l-9 0 0 -15c29,-8 56,-16 80,-25 23,-8 44,-17 61,-26l0 634c0,24 2,39 7,45 5,6 15,10 29,10l15 0 0 17c-24,8 -63,23 -116,46l-12 5zm576 -409c0,13 2,22 7,27 5,4 14,7 27,7 54,0 95,-14 124,-41 28,-27 42,-67 42,-119 0,-50 -12,-88 -37,-114 -25,-26 -62,-38 -111,-38 -20,0 -34,3 -42,11 -7,7 -10,23 -10,49l0 218zm-185 397l0 -22c36,0 59,-7 71,-22 11,-14 16,-46 16,-94l0 -463c0,-38 -5,-62 -16,-73 -12,-11 -35,-17 -71,-18l0 -22 269 0c71,0 125,16 162,47 37,32 55,77 55,137 0,42 -9,79 -26,110 -17,31 -41,54 -72,68 -19,9 -42,16 -68,20 -25,4 -62,6 -110,6l-9 0c-7,0 -12,1 -13,3 -2,2 -3,8 -3,17l0 168c0,49 5,80 17,94 11,14 36,21 74,22l0 22 -276 0zm875 -183l16 11c-24,62 -53,109 -85,139 -33,30 -70,45 -113,45 -52,0 -95,-22 -128,-67 -34,-45 -50,-104 -50,-177 0,-79 18,-144 53,-193 36,-49 83,-73 141,-73 46,0 84,17 113,51 28,34 44,81 47,141l-287 0 0 11c0,68 14,123 41,164 28,41 64,61 110,61 28,0 54,-9 78,-28 23,-18 45,-47 64,-85zm-290 -154l172 0c11,0 18,-1 20,-3 2,-3 3,-8 3,-15 0,-32 -8,-58 -25,-79 -17,-21 -38,-32 -64,-32 -30,0 -54,12 -73,34 -18,23 -29,54 -33,95zm671 248l0 -268c0,-28 -10,-54 -31,-77 -21,-23 -45,-35 -71,-35 -37,0 -66,18 -88,52 -23,34 -34,79 -34,135 0,71 13,128 38,170 25,42 58,63 100,63 14,0 29,-3 44,-10 15,-7 29,-17 42,-30zm0 101l0 -67c-20,21 -41,38 -62,48 -21,10 -44,16 -67,16 -53,0 -95,-22 -126,-65 -31,-42 -47,-100 -47,-172 0,-80 19,-145 55,-195 37,-50 83,-75 140,-75 21,0 41,4 59,12 18,8 34,20 48,36l0 -165c0,-26 -4,-43 -11,-51 -8,-9 -22,-13 -44,-13l-9 0 0 -15c29,-8 56,-16 80,-25 24,-8 44,-17 61,-26l0 634c0,24 3,39 7,45 5,6 15,10 29,10l16 0 0 17c-25,8 -63,23 -117,46l-12 5zm424 -111l0 -185c-56,22 -96,45 -121,69 -26,24 -38,52 -38,83 0,26 7,47 21,64 13,18 31,26 51,26 17,0 34,-5 50,-15 16,-11 28,-24 37,-42zm3 42c-25,22 -48,39 -71,50 -22,10 -44,16 -65,16 -32,0 -57,-11 -75,-31 -19,-21 -28,-49 -28,-84 0,-43 17,-80 50,-110 33,-30 95,-62 186,-95l0 -56c0,-39 -5,-66 -16,-82 -11,-15 -29,-23 -56,-23 -20,0 -36,6 -50,17 -13,12 -20,25 -20,40 0,2 0,6 2,14 1,8 1,14 1,20 0,13 -3,23 -11,32 -8,8 -17,12 -29,12 -13,0 -23,-4 -30,-13 -8,-9 -12,-22 -12,-37 0,-29 15,-55 44,-77 30,-22 66,-32 108,-32 50,0 87,12 110,38 24,25 36,65 36,119l0 239c0,18 2,31 6,39 4,7 10,11 19,11 7,0 13,-1 18,-4 6,-3 12,-8 19,-15l10 14c-12,20 -27,36 -43,47 -15,11 -31,17 -47,17 -15,0 -26,-6 -35,-16 -9,-10 -16,-27 -21,-50zm271 72c-12,12 -23,25 -30,40 -8,14 -11,27 -11,39 0,29 12,51 37,67 25,16 60,24 105,24 46,0 84,-10 115,-32 31,-21 46,-46 46,-74 0,-34 -49,-54 -147,-58 -47,-2 -85,-3 -115,-6zm-24 -8c-13,-10 -22,-19 -27,-28 -5,-10 -8,-20 -8,-33 0,-14 5,-30 15,-47 10,-16 28,-38 54,-66 -24,-15 -41,-35 -53,-59 -11,-24 -17,-52 -17,-85 0,-54 14,-99 43,-133 29,-35 66,-52 111,-52 20,0 38,3 54,9 17,6 33,15 48,28l104 0 0 42 -76 0c8,13 13,27 17,43 3,15 5,31 5,47 0,52 -15,96 -45,129 -30,33 -68,50 -116,50 -7,0 -15,-1 -23,-2 -9,-1 -19,-3 -30,-6 -9,9 -16,18 -21,28 -5,10 -7,18 -7,26 0,12 4,21 13,26 9,6 23,10 42,11 7,0 18,0 33,1 77,4 128,9 152,17 17,6 32,17 42,34 11,17 17,36 17,58 0,54 -24,99 -70,136 -47,37 -106,56 -177,56 -49,0 -86,-9 -112,-27 -26,-18 -39,-43 -39,-77 0,-18 5,-36 15,-55 11,-19 29,-43 56,-71zm42 -364c0,54 8,97 23,130 16,32 37,48 62,48 22,0 38,-8 49,-25 12,-16 17,-40 17,-71 0,-58 -7,-104 -22,-140 -16,-35 -35,-53 -59,-53 -24,0 -42,9 -53,27 -11,18 -17,46 -17,84zm413 79c0,77 13,139 38,187 26,48 58,72 98,72 39,0 68,-16 88,-47 19,-31 28,-78 28,-141 0,-80 -12,-144 -38,-193 -25,-48 -58,-73 -98,-73 -37,0 -65,17 -85,51 -20,34 -31,82 -31,144zm122 290c-60,0 -110,-23 -148,-71 -38,-47 -57,-108 -57,-183 0,-76 19,-138 60,-186 39,-48 91,-72 155,-72 62,0 112,22 149,68 37,45 55,106 55,182 0,80 -19,143 -58,191 -39,47 -91,71 -156,71zm-68 -580l125 -151c10,-12 18,-20 24,-24 6,-4 12,-6 17,-6 10,0 18,3 23,10 6,7 9,15 9,26 0,7 -2,14 -6,21 -5,7 -12,14 -21,20l-142 104 -29 0zm430 583c-12,12 -23,25 -30,40 -8,14 -11,27 -11,39 0,29 12,51 37,67 25,16 59,24 105,24 45,0 84,-10 115,-32 31,-21 46,-46 46,-74 0,-34 -49,-54 -147,-58 -47,-2 -85,-3 -115,-6zm-24 -8c-13,-10 -22,-19 -27,-28 -5,-10 -8,-20 -8,-33 0,-14 5,-30 15,-47 10,-16 28,-38 54,-66 -24,-15 -41,-35 -53,-59 -11,-24 -17,-52 -17,-85 0,-54 14,-99 43,-133 29,-35 66,-52 111,-52 20,0 38,3 54,9 17,6 33,15 48,28l104 0 0 42 -76 0c7,13 13,27 17,43 3,15 5,31 5,47 0,52 -15,96 -45,129 -30,33 -68,50 -116,50 -7,0 -15,-1 -23,-2 -9,-1 -19,-3 -30,-6 -9,9 -16,18 -21,28 -5,10 -7,18 -7,26 0,12 4,21 13,26 9,6 23,10 42,11 7,0 18,0 33,1 77,4 128,9 152,17 17,6 32,17 42,34 11,17 17,36 17,58 0,54 -24,99 -70,136 -47,37 -106,56 -177,56 -49,0 -86,-9 -112,-27 -26,-18 -39,-43 -39,-77 0,-18 5,-36 15,-55 11,-19 29,-43 56,-71zm42 -364c0,54 8,97 23,130 16,32 37,48 62,48 21,0 38,-8 49,-25 12,-16 17,-40 17,-71 0,-58 -7,-104 -23,-140 -15,-35 -34,-53 -58,-53 -24,0 -42,9 -53,27 -12,18 -17,46 -17,84zm323 357l0 -20c26,-1 43,-6 52,-16 8,-9 12,-31 12,-65l0 -265c0,-32 -3,-51 -8,-58 -6,-6 -18,-9 -36,-9l-15 0 0 -20c16,-3 36,-8 59,-16 24,-8 50,-19 79,-31l0 404c0,31 4,51 12,61 8,10 24,15 48,15l0 20 -203 0zm59 -683c0,-16 5,-30 14,-41 10,-11 21,-17 36,-17 13,0 25,6 35,17 9,12 14,25 14,41 0,16 -5,30 -14,41 -10,11 -22,17 -35,17 -14,0 -26,-6 -36,-17 -9,-11 -14,-25 -14,-41zm530 514l15 12c-25,57 -53,100 -83,128 -30,27 -63,41 -101,41 -50,0 -92,-23 -125,-70 -33,-46 -50,-105 -50,-176 0,-78 20,-142 59,-192 38,-50 88,-75 148,-75 39,0 72,10 97,30 24,20 37,45 37,76 0,15 -4,27 -12,36 -8,9 -18,13 -32,13 -13,0 -23,-4 -29,-12 -7,-8 -12,-23 -16,-45 -4,-24 -10,-40 -19,-50 -10,-10 -24,-15 -42,-15 -33,0 -61,18 -83,54 -22,35 -33,81 -33,137 0,62 13,113 39,151 25,39 59,59 99,59 27,0 51,-8 71,-24 20,-15 41,-41 60,-78z"/>
    <path class="fil0" d="M14743 5446l0 -185c-56,22 -97,45 -122,69 -25,24 -38,52 -38,83 0,26 7,47 21,64 14,18 31,26 52,26 17,0 34,-5 50,-15 16,-11 28,-24 37,-42zm3 42c-25,22 -49,39 -71,50 -23,10 -44,16 -66,16 -31,0 -56,-11 -75,-31 -18,-21 -27,-49 -27,-84 0,-43 16,-80 49,-110 34,-30 96,-62 187,-95l0 -56c0,-39 -5,-66 -16,-82 -11,-15 -30,-23 -57,-23 -19,0 -36,6 -49,17 -14,12 -21,25 -21,40 0,2 1,6 2,14 1,8 2,14 2,20 0,13 -4,23 -12,32 -7,8 -17,12 -29,12 -12,0 -22,-4 -30,-13 -7,-9 -11,-22 -11,-37 0,-29 15,-55 44,-77 30,-22 66,-32 108,-32 50,0 86,12 110,38 23,25 35,65 35,119l0 239c0,18 2,31 6,39 4,7 11,11 20,11 7,0 13,-1 18,-4 5,-3 11,-8 18,-15l11 14c-13,20 -27,36 -43,47 -16,11 -32,17 -47,17 -15,0 -27,-6 -36,-16 -8,-10 -15,-27 -20,-50zm565 63l-153 -419c-8,-22 -15,-36 -21,-43 -6,-7 -14,-11 -24,-11 0,0 -1,1 -3,1 -2,0 -3,0 -4,0l0 -19 189 0 0 19 -9 0c-15,0 -26,3 -32,8 -6,4 -10,12 -10,23 0,7 1,16 3,25 2,9 6,20 10,31l90 259 77 -263c4,-11 6,-21 8,-31 2,-10 3,-17 3,-21 0,-10 -3,-18 -10,-23 -7,-5 -17,-8 -30,-8l-8 0 0 -19 134 0 0 19 -2 0c-10,0 -19,5 -25,13 -7,9 -16,29 -26,62l-126 400c-28,90 -54,151 -78,184 -23,32 -51,49 -84,49 -18,0 -32,-5 -42,-15 -10,-9 -16,-22 -16,-39 0,-14 4,-25 12,-34 7,-9 17,-13 29,-13 10,0 21,3 33,9 12,5 20,8 24,8 23,0 50,-43 83,-130 3,-10 6,-17 8,-22z"/>
    <path class="fil0" d="M6037 6549l0 -22c39,0 64,-7 75,-20 12,-14 18,-43 18,-89l0 -510c0,-15 -2,-24 -6,-27 -3,-3 -14,-4 -32,-4l-15 0c-55,0 -91,9 -109,29 -17,20 -27,57 -28,112l-17 0 4 -183 504 0 4 183 -18 0c-2,-57 -11,-95 -28,-113 -16,-19 -56,-28 -120,-28 -20,0 -32,1 -36,5 -4,3 -5,12 -5,26l0 506c0,51 6,82 18,94 12,12 37,18 75,19l1 22 -285 0zm694 -183l16 11c-25,62 -53,108 -86,139 -32,30 -70,45 -112,45 -53,0 -96,-22 -129,-67 -33,-45 -50,-104 -50,-177 0,-79 18,-144 54,-193 36,-49 83,-73 140,-73 47,0 85,17 113,51 29,34 45,81 48,140l-288 0 0 12c0,68 14,123 42,164 27,41 64,61 109,61 29,0 55,-9 78,-28 24,-18 45,-47 65,-85zm-290 -154l171 0c11,0 18,-1 21,-3 2,-3 3,-8 3,-15 0,-32 -8,-58 -25,-79 -17,-21 -39,-32 -65,-32 -29,0 -53,12 -72,34 -19,23 -30,54 -33,95zm703 168l14 12c-25,57 -52,100 -82,128 -30,27 -64,41 -101,41 -50,0 -92,-23 -125,-70 -34,-46 -50,-105 -50,-176 0,-78 19,-142 58,-192 39,-50 88,-75 149,-75 39,0 71,10 96,30 25,19 37,45 37,76 0,15 -3,27 -11,36 -8,9 -19,13 -32,13 -13,0 -23,-4 -30,-12 -6,-8 -12,-23 -15,-45 -4,-24 -11,-40 -20,-50 -9,-10 -23,-15 -41,-15 -34,0 -61,18 -83,54 -23,35 -34,81 -34,137 0,62 13,113 39,151 26,39 59,58 100,58 27,0 50,-7 71,-23 20,-15 40,-41 60,-78zm39 169l0 -20c25,-1 42,-6 51,-16 8,-9 12,-31 12,-65l0 -261c0,-31 -3,-50 -8,-56 -6,-7 -19,-11 -38,-11l-17 0 0 -19c16,-3 35,-8 56,-16 21,-7 50,-20 86,-36l0 81c25,-27 49,-47 72,-60 23,-12 47,-18 70,-18 39,0 66,14 82,42 16,28 24,78 24,149l0 222c0,24 5,40 13,49 8,9 23,14 45,15l0 20 -200 0 0 -20c26,-1 43,-6 52,-15 9,-10 14,-28 14,-55l0 -217c0,-46 -6,-79 -18,-99 -12,-20 -31,-30 -58,-30 -17,0 -34,5 -51,14 -16,9 -31,23 -45,41l0 285c0,30 4,50 12,60 8,10 24,15 49,16l0 20 -203 0zm579 -278c0,77 12,139 38,187 25,48 57,72 97,72 39,0 69,-16 88,-47 19,-31 29,-78 29,-141 0,-80 -13,-144 -38,-193 -26,-48 -59,-73 -99,-73 -37,0 -65,17 -85,51 -20,34 -30,82 -30,144zm121 290c-60,0 -110,-23 -148,-71 -38,-47 -57,-108 -57,-183 0,-76 20,-138 60,-186 40,-48 92,-72 156,-72 61,0 111,22 148,68 37,45 56,106 56,182 0,80 -20,143 -59,191 -38,47 -90,71 -156,71zm267 -12l0 -20c26,-1 43,-6 51,-16 8,-9 13,-31 13,-65l0 -509c0,-31 -3,-49 -9,-56 -6,-7 -18,-11 -36,-11l-15 0 0 -19c16,-3 35,-8 58,-16 23,-8 50,-19 80,-33l0 649c0,30 4,50 12,60 8,10 25,15 49,16l0 20 -203 0zm336 -278c0,77 12,139 37,187 26,48 58,72 98,72 39,0 68,-16 88,-47 19,-31 28,-78 28,-141 0,-80 -12,-144 -38,-193 -25,-48 -58,-73 -98,-73 -37,0 -65,17 -85,51 -20,34 -30,82 -30,144zm121 290c-60,0 -110,-23 -148,-71 -38,-47 -57,-108 -57,-183 0,-76 20,-138 60,-186 40,-48 92,-72 156,-72 61,0 111,22 148,68 37,45 55,106 55,182 0,80 -19,143 -58,191 -39,47 -91,71 -156,71zm-68 -580l125 -151c10,-12 18,-20 24,-24 6,-4 12,-6 17,-6 10,0 18,3 24,10 5,7 8,15 8,26 0,7 -2,14 -6,21 -5,7 -11,14 -20,20l-143 104 -29 0zm430 583c-12,12 -22,25 -30,40 -8,14 -11,27 -11,39 0,29 12,51 37,67 25,16 60,24 105,24 46,0 84,-10 115,-32 31,-21 46,-46 46,-74 0,-34 -49,-54 -147,-58 -47,-2 -85,-3 -115,-6zm-24 -8c-13,-10 -22,-19 -27,-28 -5,-10 -8,-20 -8,-33 0,-14 5,-30 15,-47 10,-16 28,-38 54,-66 -23,-15 -41,-35 -53,-59 -11,-24 -17,-52 -17,-85 0,-54 14,-99 43,-133 29,-35 66,-52 111,-52 20,0 38,3 55,9 16,6 32,15 47,28l104 0 0 42 -76 0c8,13 13,27 17,43 3,15 5,31 5,47 0,52 -15,96 -45,129 -30,33 -68,50 -116,50 -7,0 -15,-1 -23,-2 -9,-1 -19,-3 -30,-6 -9,9 -16,18 -21,28 -5,9 -7,18 -7,26 0,12 4,21 13,26 9,6 23,10 42,11 7,0 18,0 33,1 77,4 128,9 152,17 17,6 32,17 42,34 11,17 17,36 17,58 0,54 -24,99 -70,136 -47,37 -106,56 -177,56 -49,0 -86,-9 -112,-27 -26,-18 -39,-43 -39,-77 0,-18 5,-36 15,-55 11,-19 29,-43 56,-71zm42 -364c0,54 8,97 23,130 16,32 37,48 62,48 22,0 38,-8 49,-25 12,-16 17,-40 17,-71 0,-58 -7,-104 -22,-140 -16,-35 -35,-53 -59,-53 -24,0 -42,9 -53,27 -11,18 -17,46 -17,84zm323 357l1 -20c25,-1 42,-6 51,-16 8,-9 12,-31 12,-65l0 -265c0,-32 -3,-51 -8,-58 -6,-6 -18,-10 -36,-10l-15 0 0 -19c17,-3 36,-8 59,-16 24,-8 50,-19 79,-31l0 404c0,31 4,51 12,61 8,10 24,15 48,15l0 20 -203 0zm59 -683c0,-16 5,-30 14,-41 10,-11 21,-17 36,-17 13,0 25,6 35,17 9,12 14,25 14,41 0,16 -5,30 -14,41 -10,11 -22,17 -35,17 -14,0 -26,-6 -35,-17 -10,-11 -15,-25 -15,-41zm530 514l15 12c-25,57 -53,100 -82,128 -31,27 -64,41 -102,41 -50,0 -91,-23 -125,-70 -33,-46 -49,-105 -49,-176 0,-78 19,-142 58,-192 39,-50 88,-75 148,-75 39,0 72,10 97,30 25,19 37,45 37,76 0,15 -4,27 -12,36 -8,9 -18,13 -32,13 -13,0 -23,-4 -29,-12 -7,-8 -12,-23 -16,-45 -3,-24 -10,-40 -19,-50 -10,-10 -24,-15 -42,-15 -33,0 -60,18 -83,54 -22,35 -33,81 -33,137 0,62 13,113 39,151 25,39 59,58 99,58 27,0 51,-7 71,-23 20,-15 41,-41 60,-78zm297 70l0 -185c-56,22 -97,45 -122,69 -25,24 -37,51 -37,83 0,26 6,47 20,64 14,18 32,26 52,26 17,0 34,-5 50,-15 16,-11 28,-24 37,-42zm3 42c-25,22 -49,39 -71,50 -23,10 -44,16 -65,16 -32,0 -57,-11 -75,-31 -19,-21 -28,-49 -28,-84 0,-43 16,-80 50,-110 33,-30 95,-62 186,-96l0 -56c0,-38 -5,-66 -16,-81 -11,-15 -30,-23 -56,-23 -20,0 -37,6 -50,17 -14,12 -20,25 -20,40 0,2 0,6 1,14 2,8 2,14 2,20 0,13 -4,23 -11,32 -8,8 -18,12 -30,12 -12,0 -22,-4 -30,-13 -7,-9 -11,-22 -11,-37 0,-29 15,-55 44,-77 30,-22 66,-32 108,-32 50,0 87,12 110,38 24,25 35,65 35,119l0 239c0,18 2,31 6,39 4,7 11,11 20,11 7,0 13,-1 18,-4 5,-3 11,-8 18,-15l11 14c-13,20 -27,36 -43,47 -16,11 -32,17 -47,17 -15,0 -26,-6 -36,-16 -8,-10 -15,-27 -20,-50zm716 -32l0 -268c0,-28 -11,-54 -32,-77 -21,-23 -44,-35 -71,-35 -36,0 -66,18 -88,52 -22,34 -34,79 -34,135 0,71 13,128 38,170 26,42 59,63 100,63 15,0 30,-3 44,-10 15,-7 29,-17 43,-30zm0 101l0 -67c-21,21 -41,37 -62,48 -22,10 -44,16 -68,16 -52,0 -95,-22 -126,-65 -31,-42 -46,-100 -46,-173 0,-79 18,-144 55,-194 36,-50 83,-75 139,-75 22,0 41,4 59,12 18,8 34,20 49,36l0 -165c0,-26 -4,-43 -12,-51 -7,-9 -22,-13 -43,-13l-10 0 0 -15c29,-8 56,-16 80,-25 24,-8 45,-17 62,-26l0 634c0,24 2,39 7,45 5,6 15,10 29,10l15 0 0 17c-24,8 -63,23 -116,46l-12 5zm541 -195l16 11c-25,62 -53,108 -86,139 -32,30 -69,45 -112,45 -53,0 -96,-22 -129,-67 -33,-45 -49,-104 -49,-177 0,-79 17,-144 53,-193 36,-49 83,-73 140,-73 47,0 85,17 113,51 29,34 45,81 48,140l-287 0 0 12c0,68 13,123 41,164 27,41 64,61 110,61 28,0 54,-9 77,-28 24,-18 45,-47 65,-85zm-290 -154l171 0c12,0 18,-1 21,-3 2,-3 3,-8 3,-15 0,-32 -8,-58 -25,-79 -17,-21 -39,-32 -65,-32 -29,0 -53,12 -72,34 -18,23 -30,54 -33,95zm1162 171l15 19c-34,55 -73,96 -115,123 -43,27 -92,40 -146,40 -96,0 -174,-34 -232,-101 -58,-67 -88,-156 -88,-267 0,-110 31,-201 92,-271 60,-71 139,-106 234,-106 36,0 74,6 112,20 39,14 61,21 65,21 9,0 16,-3 22,-10 5,-7 8,-16 8,-26l17 0 17 231 -18 0c-17,-65 -44,-114 -79,-148 -35,-33 -78,-50 -128,-50 -71,0 -128,31 -171,92 -43,61 -65,141 -65,242 0,96 22,175 65,236 43,62 98,93 165,93 46,0 88,-11 124,-33 36,-21 71,-56 106,-105zm133 -112c0,77 13,139 38,187 25,48 58,72 98,72 39,0 68,-16 87,-47 20,-31 29,-78 29,-141 0,-80 -13,-144 -38,-193 -25,-48 -58,-73 -98,-73 -37,0 -65,17 -85,51 -21,34 -31,82 -31,144zm122 290c-61,0 -110,-23 -148,-71 -38,-47 -57,-108 -57,-183 0,-76 19,-138 59,-186 40,-48 92,-72 156,-72 62,0 112,22 149,68 37,45 55,106 55,182 0,80 -19,143 -58,191 -39,47 -91,71 -156,71zm266 -12l0 -20c26,-1 43,-6 52,-16 8,-9 12,-31 12,-65l0 -509c0,-31 -3,-49 -9,-56 -5,-7 -17,-11 -36,-11l-14 0 0 -19c15,-3 35,-8 57,-16 24,-8 50,-19 80,-33l0 649c0,30 5,50 13,60 8,10 24,15 48,16l0 20 -203 0zm336 -278c0,77 13,139 38,187 25,48 58,72 97,72 40,0 69,-16 88,-47 19,-31 29,-78 29,-141 0,-80 -13,-144 -38,-193 -25,-48 -58,-73 -99,-73 -36,0 -64,17 -85,51 -20,34 -30,82 -30,144zm122 290c-61,0 -110,-23 -148,-71 -39,-47 -58,-108 -58,-183 0,-76 20,-138 60,-186 40,-48 92,-72 156,-72 62,0 111,22 148,68 37,45 56,106 56,182 0,80 -19,143 -58,191 -39,47 -91,71 -156,71zm266 -12l0 -20c25,-1 42,-6 50,-15 8,-10 12,-27 12,-52l0 -263c0,-35 -3,-56 -10,-65 -7,-9 -21,-14 -43,-14l-9 0 0 -19c26,-5 51,-12 74,-21 24,-9 46,-19 66,-31l0 85c26,-28 50,-49 72,-62 23,-14 45,-20 65,-20 25,0 46,7 63,22 18,15 30,35 38,62 34,-31 62,-53 83,-66 22,-12 42,-18 60,-18 39,0 67,12 85,38 17,26 25,70 25,131l0 227c0,38 4,60 11,68 7,8 24,12 49,13l0 20 -204 0 0 -20c28,-1 46,-5 54,-12 8,-7 13,-24 13,-52l0 -263c0,-27 -7,-48 -20,-63 -14,-15 -32,-22 -56,-22 -15,0 -30,3 -44,12 -15,8 -31,21 -49,40l0 290c0,30 4,49 12,57 8,9 25,13 51,13l0 20 -206 0 0 -20c27,-2 45,-6 54,-13 8,-8 12,-22 12,-43l0 -268c0,-28 -6,-50 -18,-65 -13,-16 -30,-23 -52,-23 -16,0 -31,4 -47,13 -16,8 -33,22 -51,41l0 295c0,25 4,42 12,50 8,8 25,12 51,13l0 20 -203 0zm846 -103c0,24 9,43 26,58 18,14 40,21 69,21 38,0 69,-19 91,-57 22,-38 33,-90 33,-157 0,-60 -12,-109 -36,-146 -24,-37 -54,-55 -92,-55 -26,0 -48,7 -65,21 -18,14 -26,33 -26,57l0 258zm-77 53l0 -526c0,-47 -4,-76 -12,-86 -8,-11 -23,-16 -47,-16l0 -18c21,-5 44,-11 67,-19 23,-8 46,-18 69,-29l0 315c26,-26 50,-44 71,-55 22,-11 45,-16 70,-16 45,0 82,20 112,61 30,41 45,93 45,156 0,85 -21,154 -64,208 -42,54 -97,81 -163,81 -26,0 -50,-5 -75,-14 -24,-9 -48,-23 -73,-42zm433 50l0 -20c26,-1 43,-6 51,-16 9,-9 13,-31 13,-65l0 -265c0,-32 -3,-51 -9,-58 -5,-6 -17,-10 -35,-10l-15 0 0 -19c16,-3 36,-8 59,-16 24,-8 50,-19 79,-31l0 404c0,31 4,51 12,61 8,10 24,15 48,15l0 20 -203 0zm59 -683c0,-16 5,-30 14,-41 9,-11 21,-17 35,-17 14,0 26,6 35,17 10,12 15,25 15,41 0,16 -5,30 -15,41 -9,11 -21,17 -35,17 -13,0 -25,-6 -35,-17 -9,-11 -14,-25 -14,-41zm438 584l0 -185c-56,22 -97,45 -122,69 -25,24 -38,51 -38,83 0,26 7,47 21,64 14,18 31,26 52,26 17,0 34,-5 50,-15 16,-11 28,-24 37,-42zm3 42c-25,22 -49,39 -71,50 -23,10 -44,16 -66,16 -31,0 -56,-11 -75,-31 -18,-21 -27,-49 -27,-84 0,-43 16,-80 49,-110 34,-30 96,-62 187,-96l0 -56c0,-38 -5,-66 -16,-81 -11,-15 -30,-23 -57,-23 -19,0 -36,6 -49,17 -14,12 -21,25 -21,40 0,2 1,6 2,14 1,8 2,14 2,20 0,13 -4,23 -12,32 -7,8 -17,12 -29,12 -12,0 -22,-4 -30,-13 -7,-9 -11,-22 -11,-37 0,-29 15,-55 44,-77 30,-22 66,-32 108,-32 50,0 86,12 110,38 23,25 35,65 35,119l0 239c0,18 2,31 6,39 4,7 11,11 20,11 7,0 13,-1 18,-4 5,-3 11,-8 18,-15l11 14c-13,20 -27,36 -43,47 -16,11 -32,17 -47,17 -15,0 -27,-6 -36,-16 -8,-10 -15,-27 -20,-50z"/>
    <polygon class="fil1" points="5769,3998 9497,3998 9497,4148 5769,4148 "/>
    <polygon class="fil1" points="10677,3998 15329,3998 15329,4148 10677,4148 "/>
    <path class="fil1" d="M11845 1952l0 -49c128,-69 240,-154 335,-255 94,-102 173,-220 235,-353l77 0 0 527 455 0 0 130 -455 0 0 1171c0,96 15,164 44,202 29,39 79,58 151,58 48,0 95,-10 141,-31 46,-21 91,-53 135,-95l54 52c-80,103 -160,176 -241,223 -81,46 -171,69 -272,69 -128,0 -222,-32 -282,-97 -59,-65 -89,-167 -89,-307l0 -1245 -288 0z"/>
    <path class="fil1" d="M14774 2886l66 41c-114,206 -240,358 -377,458 -138,99 -293,149 -465,149 -230,0 -421,-83 -574,-250 -152,-167 -228,-377 -228,-631 0,-282 89,-512 267,-692 178,-179 405,-268 682,-268 180,0 328,36 442,107 115,71 172,163 172,274 0,54 -18,97 -54,128 -36,32 -85,48 -147,48 -60,0 -105,-14 -135,-43 -30,-29 -55,-82 -72,-161 -17,-85 -47,-145 -90,-180 -43,-35 -106,-52 -189,-52 -153,0 -280,64 -381,191 -103,128 -154,292 -154,492 0,223 59,404 178,543 119,139 271,208 458,208 123,0 231,-27 325,-83 93,-56 185,-149 276,-279z"/>
    <path class="fil1" d="M10385 3208c59,77 128,136 207,176 79,40 165,61 258,61 172,0 309,-67 409,-200 101,-133 151,-314 151,-544 0,-216 -52,-390 -156,-524 -103,-133 -237,-200 -400,-200 -77,0 -154,18 -231,54 -78,36 -157,91 -238,164l0 1013zm-3782 -2236l0 -78 1435 0 0 76c-180,5 -300,33 -359,83 -59,50 -89,157 -89,318l0 1107c0,303 76,527 228,673 153,146 388,219 705,219 323,0 574,-78 752,-233 178,-155 267,-372 267,-652l0 -1107c0,-157 -32,-263 -98,-318 -66,-56 -191,-85 -374,-88l-3 -78 1138 0 0 76c-161,5 -273,37 -335,95 -62,58 -93,164 -93,317l0 559c111,-32 216,-64 314,-98 107,-37 204,-76 294,-117l0 307c120,-102 228,-176 327,-221 99,-45 199,-68 301,-68 230,0 415,76 555,227 140,151 209,354 209,609 0,291 -85,528 -256,710 -171,182 -390,274 -659,274 -94,0 -180,-12 -260,-34 -80,-22 -152,-55 -217,-99l0 617c0,114 21,188 64,223 42,34 130,53 262,58l0 69 -973 0 0 -69c119,-6 198,-26 237,-62 38,-36 57,-109 57,-219l0 -1635c0,-99 -16,-164 -48,-194 -33,-31 -97,-47 -192,-47l-15 0 0 265c0,365 -114,640 -342,827 -229,187 -565,280 -1009,280 -228,0 -432,-23 -613,-71 -180,-47 -328,-116 -441,-205 -103,-83 -178,-186 -225,-308 -45,-122 -69,-283 -69,-482l0 -969c0,-230 -32,-378 -95,-441 -64,-64 -190,-96 -380,-96z"/>
    <path class="fil2" d="M11643 1901l0 -49c128,-69 240,-154 335,-255 94,-102 173,-220 235,-353l77 0 0 527 455 0 0 130 -455 0 0 1171c0,96 15,164 44,202 30,39 80,58 151,58 48,0 95,-10 141,-31 47,-21 91,-53 135,-95l54 52c-79,103 -159,176 -241,223 -80,46 -171,69 -271,69 -129,0 -223,-32 -282,-97 -60,-65 -90,-167 -90,-307l0 -1245 -288 0z"/>
    <path class="fil2" d="M14573 2835l65 41c-114,206 -240,358 -377,458 -138,99 -292,149 -464,149 -231,0 -422,-83 -574,-250 -153,-167 -229,-377 -229,-631 0,-282 89,-512 267,-692 178,-179 406,-268 683,-268 179,0 327,36 442,107 114,71 171,163 171,274 0,54 -18,97 -54,128 -35,32 -84,48 -147,48 -59,0 -105,-14 -134,-43 -31,-29 -55,-82 -72,-161 -17,-85 -48,-145 -90,-180 -44,-35 -107,-52 -190,-52 -153,0 -279,64 -381,191 -102,128 -153,292 -153,492 0,223 59,404 177,543 119,139 271,208 458,208 123,0 232,-27 325,-83 93,-56 186,-149 277,-279z"/>
    <path class="fil2" d="M10184 3157c58,77 127,136 206,176 80,40 166,61 259,61 172,0 308,-67 408,-200 101,-133 151,-314 151,-544 0,-216 -52,-390 -155,-524 -104,-133 -238,-200 -400,-200 -78,0 -155,18 -232,54 -77,36 -157,91 -237,164l0 1013zm-3783 -2236l0 -78 1436 0 0 76c-181,5 -301,33 -360,83 -59,50 -89,157 -89,318l0 1107c0,303 77,527 229,673 153,146 387,219 704,219 323,0 574,-78 753,-233 177,-155 267,-372 267,-652l0 -1107c0,-157 -33,-263 -99,-318 -66,-56 -191,-85 -374,-88l-2 -78 1137 0 0 76c-160,5 -272,37 -334,95 -63,58 -94,164 -94,317l0 559c111,-32 216,-64 315,-98 106,-37 204,-76 294,-117l0 307c119,-102 227,-176 326,-221 99,-45 200,-68 301,-68 231,0 416,76 555,227 140,151 210,354 210,609 0,291 -86,528 -256,710 -171,182 -391,274 -660,274 -93,0 -180,-11 -260,-34 -79,-22 -151,-55 -216,-99l0 617c0,114 21,188 63,223 42,34 130,53 262,58l0 69 -972 0 0 -69c119,-6 197,-26 236,-62 39,-36 58,-109 58,-219l0 -1635c0,-99 -17,-164 -49,-194 -33,-31 -96,-47 -192,-47l-15 0 0 265c0,365 -114,640 -342,827 -228,187 -565,280 -1009,280 -227,0 -432,-23 -613,-71 -180,-47 -327,-116 -441,-205 -103,-83 -178,-186 -224,-308 -46,-122 -69,-283 -69,-482l0 -969c0,-230 -32,-378 -96,-441 -64,-64 -190,-96 -380,-96z"/>
    <polygon class="fil2" points="2490,5287 2745,5557 3000,5826 2490,5826 1979,5826 2235,5557 "/>
    <path class="fil3" d="M3346 1251c391,227 648,605 648,1031 0,520 -382,968 -924,1158l38 -122c-1,1 -2,1 -3,1 10,-40 17,-82 20,-124 -13,-216 -66,-415 -147,-579 31,-18 60,-38 86,-59 -8,7 -16,14 -25,21 74,154 130,326 152,521 14,10 31,15 49,15 51,0 93,-43 93,-96 0,-21 -7,-41 -19,-57 0,-1 0,-1 1,-1 16,25 44,42 76,42 51,0 93,-43 93,-96 0,-22 -8,-42 -20,-58 14,8 30,13 48,13 51,0 92,-43 92,-95 0,-26 -10,-50 -26,-67 6,1 13,2 20,2 51,0 93,-43 93,-96 0,-35 -19,-66 -47,-82 6,1 12,2 19,2 51,0 92,-43 92,-96 0,-45 -30,-83 -71,-93 51,0 93,-43 93,-95 0,-53 -42,-96 -93,-96 0,0 0,0 0,0 0,0 0,0 0,0 41,-10 71,-48 71,-93 0,-52 -41,-95 -92,-95 -4,0 -7,0 -10,0 18,-17 29,-42 29,-69 0,-53 -42,-96 -93,-96 -7,0 -13,1 -20,3 17,-18 27,-41 27,-68 0,-52 -42,-95 -93,-95 -15,0 -30,4 -43,11 10,-15 15,-33 15,-52 0,-53 -42,-95 -93,-95 -28,0 -53,12 -70,33 -6,2 -14,3 -21,3 -39,0 -71,-33 -71,-73 0,-3 0,-6 1,-10 43,-68 85,-134 125,-198zm-1460 2178c-525,-196 -893,-637 -893,-1147 0,-427 258,-805 650,-1032 68,111 120,194 118,195 1,3 1,6 1,10 0,16 -5,31 -14,43 -11,8 -20,16 -29,24 -9,4 -18,6 -28,6 -7,0 -15,-1 -21,-3 -17,-18 -41,-29 -67,-29 -51,0 -93,42 -93,95 0,19 6,37 15,52 -13,-7 -27,-11 -43,-11 -51,0 -92,43 -92,95 0,27 10,50 27,68 -7,-2 -14,-3 -21,-3 -51,0 -93,43 -93,96 0,27 12,52 30,69 -4,0 -7,0 -10,0 -51,0 -93,43 -93,95 0,44 29,82 69,92 0,1 0,1 0,1 -50,1 -90,44 -90,96 0,52 41,95 92,95 0,0 0,0 0,0 -41,10 -71,48 -71,93 0,53 42,96 93,96 6,0 13,-1 19,-2 -28,16 -47,47 -47,82 0,53 41,96 93,96 7,0 13,-1 20,-2 -17,17 -27,41 -27,67 0,52 42,95 93,95 17,0 33,-5 47,-13 -12,16 -19,36 -19,58 0,53 41,96 93,96 31,0 59,-17 76,-41 0,0 0,0 0,0 -11,16 -18,36 -18,57 0,53 41,96 92,96 7,0 14,-1 21,-2 22,-210 82,-391 162,-554 19,15 39,29 60,43 -84,164 -139,363 -154,580 4,70 17,137 39,200l13 48zm104 -827c0,0 0,0 0,0 0,0 0,0 0,0 0,0 0,0 0,0z"/>
    <path class="fil4" d="M3346 1251c391,227 648,605 648,1031 0,520 -382,968 -924,1158l38 -122c-1,1 -2,1 -3,1 10,-40 17,-82 20,-124 -13,-216 -66,-415 -147,-579 31,-18 60,-38 86,-59 -8,7 -16,14 -25,21 74,154 130,326 152,521 14,10 31,15 49,15 51,0 93,-43 93,-96 0,-21 -7,-41 -19,-57 0,-1 0,-1 1,-1 16,25 44,42 76,42 51,0 93,-43 93,-96 0,-22 -8,-42 -20,-58 14,8 30,13 48,13 51,0 92,-43 92,-95 0,-26 -10,-50 -26,-67 6,1 13,2 20,2 51,0 93,-43 93,-96 0,-35 -19,-66 -47,-82 6,1 12,2 19,2 51,0 92,-43 92,-96 0,-45 -30,-83 -71,-93 51,0 93,-43 93,-95 0,-53 -42,-96 -93,-96 0,0 0,0 0,0 0,0 0,0 0,0 41,-10 71,-48 71,-93 0,-52 -41,-95 -92,-95 -4,0 -7,0 -10,0 18,-17 29,-42 29,-69 0,-53 -42,-96 -93,-96 -7,0 -13,1 -20,3 17,-18 27,-41 27,-68 0,-52 -42,-95 -93,-95 -15,0 -30,4 -43,11 10,-15 15,-33 15,-52 0,-53 -42,-95 -93,-95 -28,0 -53,12 -70,33 -6,2 -14,3 -21,3 -39,0 -71,-33 -71,-73 0,-3 0,-6 1,-10 43,-68 85,-134 125,-198zm-1460 2178c-525,-196 -893,-637 -893,-1147 0,-427 258,-805 650,-1032 68,111 120,194 118,195 1,3 1,6 1,10 0,16 -5,31 -14,43 -11,8 -20,16 -29,24 -9,4 -18,6 -28,6 -7,0 -15,-1 -21,-3 -17,-18 -41,-29 -67,-29 -51,0 -93,42 -93,95 0,19 6,37 15,52 -13,-7 -27,-11 -43,-11 -51,0 -92,43 -92,95 0,27 10,50 27,68 -7,-2 -14,-3 -21,-3 -51,0 -93,43 -93,96 0,27 12,52 30,69 -4,0 -7,0 -10,0 -51,0 -93,43 -93,95 0,44 29,82 69,92 0,1 0,1 0,1 -50,1 -90,44 -90,96 0,52 41,95 92,95 0,0 0,0 0,0 -41,10 -71,48 -71,93 0,53 42,96 93,96 6,0 13,-1 19,-2 -28,16 -47,47 -47,82 0,53 41,96 93,96 7,0 13,-1 20,-2 -17,17 -27,41 -27,67 0,52 42,95 93,95 17,0 33,-5 47,-13 -12,16 -19,36 -19,58 0,53 41,96 93,96 31,0 59,-17 76,-41 0,0 0,0 0,0 -11,16 -18,36 -18,57 0,53 41,96 92,96 7,0 14,-1 21,-2 22,-210 82,-391 162,-554 19,15 39,29 60,43 -84,164 -139,363 -154,580 4,70 17,137 39,200l13 48zm104 -827c0,0 0,0 0,0 0,0 0,0 0,0 0,0 0,0 0,0z"/>
    <path class="fil1" d="M2300 1637l331 -14 67 41c34,20 7,-30 7,-30 0,0 8,-228 -12,-286 -19,-58 -31,-203 -31,-203 0,0 -74,37 -110,37 -35,0 -191,-4 -230,-4 -39,0 -43,21 -59,42 -15,20 -58,57 -58,57l-86 29 -75 42c0,0 -27,74 -4,91 24,16 43,38 43,38l10 -52c18,-4 45,-7 76,-7 31,0 55,37 55,37l-19 8 -83 27 73 8 66 -13 6 7 0 42c0,0 -23,20 -62,20 -40,0 -71,-12 -90,-29 -20,-16 -47,-20 -36,17 12,37 28,66 98,66 71,0 110,-25 133,-17 24,9 -10,46 -10,46zm20 -350l179 -43c-20,12 -38,31 -59,42l-24 33c0,0 -67,30 -65,-11 -8,-18 -31,-21 -31,-21zm-226 111l-7 -30 47 -49 51 -8 74 20 20 58 -52 29c-2,-3 -4,-6 -7,-8 -27,-29 -121,-13 -121,-13l-5 1zm386 4817l39 82 -41 88 -39 -83 41 -87zm-135 -749l294 0 57 101 58 0 -9 -10 -255 -270 -255 270 -8 8 63 0 55 -99zm550 249l0 68 -811 0 0 -67 -105 110 511 0 510 0 -105 -111zm-542 -227l277 0 46 97 96 0 90 95 -179 0 0 -74 -378 0 0 75 -188 0 90 -96 100 0 46 -97zm-1132 -1069c-155,208 -300,388 -386,365 339,-364 527,-694 932,-1486 11,71 9,66 26,160 -334,654 -431,774 -572,961zm-273 -3964c-105,-230 -100,-392 -43,-455 145,450 260,665 716,1352 -30,21 -60,43 -88,66 -20,-25 -50,-66 -67,-89 -387,-582 -426,-672 -518,-874zm-181 280c-131,-216 -145,-377 -95,-446 189,414 322,599 808,1173 -32,29 -63,59 -91,91 -434,-511 -509,-631 -622,-818zm-152 311c-162,-192 -202,-350 -163,-426 240,363 398,526 908,966 -28,33 -54,67 -78,103 -442,-380 -533,-485 -667,-643zm-105 323c-189,-165 -251,-314 -225,-395 280,307 456,444 965,764 -22,38 -42,76 -59,115 -429,-269 -533,-355 -681,-484zm-55 418c-223,-113 -319,-243 -312,-328 321,214 534,312 1017,473 -14,41 -26,82 -35,125 -381,-127 -511,-189 -670,-270zm-22 368c-241,-63 -361,-170 -372,-255 347,138 577,188 1050,241 -4,38 -7,77 -7,116 0,5 1,9 1,14 -365,-41 -505,-71 -672,-116zm20 377c-249,-4 -390,-79 -420,-159 369,51 605,50 1077,-11 5,43 12,86 22,127 -362,47 -507,47 -679,43zm46 362c-245,48 -398,5 -445,-67 387,-30 612,-82 1101,-259 14,41 30,81 49,120 -390,141 -528,171 -705,206zm58 348c-230,95 -389,83 -448,21 396,-110 614,-206 1125,-516 21,37 44,74 69,109 -427,259 -566,312 -746,386zm128 376c-208,139 -366,159 -436,111 391,-201 577,-343 1092,-824 26,34 55,66 86,96 -447,418 -568,500 -742,617zm153 330c-188,165 -349,212 -424,173 377,-260 565,-468 1063,-1072 32,28 65,56 100,81 -16,25 -50,68 -65,85 -442,540 -508,587 -674,733zm3200 -3493c104,-230 100,-392 42,-455 -144,450 -260,665 -716,1352 31,21 60,43 89,66 19,-25 49,-66 66,-89 388,-582 427,-672 519,-874zm181 280c130,-216 144,-377 94,-446 -188,414 -322,599 -808,1173 33,29 63,59 92,91 434,-511 509,-631 622,-818zm152 311c162,-192 201,-350 163,-426 -241,363 -399,526 -908,966 28,33 54,67 78,103 441,-380 533,-485 667,-643zm104 323c189,-165 252,-314 225,-395 -279,307 -456,444 -965,764 22,38 42,76 60,115 429,-269 532,-355 680,-484zm56 418c222,-113 318,-243 312,-328 -321,214 -534,312 -1017,473 14,41 26,82 35,125 380,-127 510,-189 670,-270zm22 368c241,-63 361,-170 372,-255 -348,138 -577,188 -1051,241 5,38 7,77 7,116 0,5 0,9 0,14 365,-41 505,-71 672,-116zm-21 377c249,-4 391,-79 421,-159 -370,51 -605,50 -1077,-11 -5,43 -13,86 -23,127 363,47 507,47 679,43zm-45 362c244,48 398,5 444,-67 -386,-30 -612,-82 -1100,-259 -14,41 -30,81 -49,120 390,141 527,171 705,206zm-59 348c231,95 390,83 449,21 -396,-110 -614,-206 -1125,-516 -21,37 -44,74 -69,109 426,259 566,312 745,386zm-127 376c207,139 366,159 435,111 -391,-201 -576,-343 -1091,-824 -27,34 -56,66 -86,96 446,418 568,500 742,617zm-154 330c188,165 349,212 425,173 -377,-260 -566,-468 -1063,-1072 -32,28 -65,56 -101,81 17,25 51,68 65,85 443,540 509,587 674,733zm-401 463c156,207 301,388 387,365 -340,-364 -528,-695 -933,-1487 -11,71 -9,66 -25,160 333,654 431,774 571,962zm-2626 -278c-163,188 -391,380 -471,350 336,-304 568,-659 975,-1319 36,24 73,47 111,68 -13,27 -40,73 -52,92 -362,589 -420,645 -563,809zm2749 5c163,187 390,379 470,349 -336,-304 -568,-659 -975,-1319 -35,24 -72,47 -111,68 13,27 40,73 52,92 362,590 420,645 564,810zm-2023 -219l2 3c2,-1 3,-2 4,-3l36 32 54 -56 -54 -38 96 -67 -111 -409c-22,-63 -35,-130 -39,-200 15,-217 70,-417 154,-580 1,0 2,1 2,1 134,-265 207,-543 354,-809 11,-20 12,-35 8,-47 0,0 0,0 -1,0 -12,-26 -51,-33 -47,-41 -3,-3 0,-6 14,-10l292 -13 84 55c0,0 0,1 -1,3l2 1c0,0 -1,6 -3,15 0,0 0,0 -1,0 -7,53 -23,208 13,272 104,188 173,409 273,586 81,165 135,364 148,581 -3,42 -10,84 -20,124 1,0 2,0 3,-1l-145 472 95 67 -41 29 80 82 55 -49c32,27 137,108 213,134 61,21 98,-15 101,15 0,0 -41,68 -289,47 -77,-7 -98,101 -144,161 -123,162 -35,298 -95,214 -41,-57 -102,-137 -109,-247l-12 97c0,0 -22,69 -58,86 -35,16 -70,24 -70,24 0,0 84,-57 26,-143 -57,-86 -53,-189 -53,-189l0 -127 -97 0c-24,180 -39,397 12,454 91,102 392,165 392,314 0,150 -22,-57 -104,-81 -83,-24 -309,19 -309,19 0,0 561,375 577,468 16,94 -3,121 -146,181 8,-45 52,-130 37,-165 -60,-138 -224,-398 -364,-243 -88,97 -70,116 -70,116l892 990 -962 8 113 237 -159 334 -149 -313 123 -258 -961 -8 893 -990c0,0 17,-19 -70,-116 -140,-155 -305,105 -364,243 -15,35 29,117 37,162 -143,-60 -163,-84 -147,-178 16,-93 606,-468 606,-468 0,0 -254,-49 -337,-25 -83,24 -105,237 -105,87 0,-149 301,-212 393,-314 51,-57 35,-274 12,-454l-100 0 0 127c0,0 5,103 -53,189 -57,86 27,143 27,143 0,0 -35,-8 -71,-24 -30,-14 -50,-67 -56,-82 -23,60 -59,108 -86,146 -17,23 -22,30 -24,23 -21,22 28,-99 -77,-237 -74,-97 -133,-140 -167,-159 -223,14 -260,-49 -260,-49 3,-30 40,6 101,-15 59,-20 136,-74 182,-110 7,-8 16,-16 25,-24zm636 2181l92 193 -98 206 -92 -193 98 -206zm557 -3522c115,-89 181,-206 181,-336 0,-162 -111,-307 -283,-399l30 -53c-1,0 205,-371 207,-370 252,-402 428,-708 503,-966 34,35 39,127 -17,259 -47,112 -235,412 -439,736 -1,4 -1,7 -1,10 0,40 32,73 71,73 7,0 15,-1 21,-3 17,-21 42,-33 70,-33 51,0 93,42 93,95 0,19 -5,37 -15,52 13,-7 28,-11 43,-11 51,0 93,43 93,95 0,27 -10,50 -27,68 7,-2 13,-3 20,-3 51,0 93,43 93,96 0,27 -11,52 -29,69 3,0 6,0 10,0 51,0 92,43 92,95 0,45 -30,83 -71,93 0,0 0,0 0,0 0,0 0,0 0,0 51,0 93,43 93,96 0,52 -42,95 -93,95 41,10 71,48 71,93 0,53 -41,96 -92,96 -7,0 -13,-1 -19,-2 28,16 47,47 47,82 0,53 -42,96 -93,96 -7,0 -14,-1 -20,-2 16,17 26,41 26,67 0,52 -41,95 -92,95 -18,0 -34,-5 -48,-13 12,16 20,36 20,58 0,53 -42,96 -93,96 -32,0 -60,-17 -76,-42 -1,0 -1,0 -1,1 12,16 19,36 19,57 0,53 -42,96 -93,96 -18,0 -35,-5 -49,-15 -22,-195 -78,-367 -152,-521zm-1273 534c-7,1 -14,2 -21,2 -51,0 -92,-43 -92,-96 0,-21 7,-41 18,-57 0,0 0,0 0,0 -17,24 -45,41 -76,41 -52,0 -93,-43 -93,-96 0,-22 7,-42 19,-58 -14,8 -30,13 -47,13 -51,0 -93,-43 -93,-95 0,-26 10,-50 27,-67 -7,1 -13,2 -20,2 -52,0 -93,-43 -93,-96 0,-35 19,-66 47,-82 -6,1 -13,2 -19,2 -51,0 -93,-43 -93,-96 0,-45 30,-83 71,-93 0,0 0,0 0,0 -51,0 -92,-43 -92,-95 0,-52 40,-95 90,-96 0,0 0,0 0,-1 -39,-10 -69,-48 -69,-92 0,-52 42,-95 93,-95 3,0 6,0 10,0 -18,-17 -30,-42 -30,-69 0,-53 42,-96 93,-96 7,0 14,1 21,3 -17,-18 -27,-41 -27,-68 0,-52 41,-95 92,-95 16,0 30,4 43,11 -9,-15 -15,-33 -15,-52 0,-53 42,-95 93,-95 26,0 50,11 67,29 6,2 14,3 21,3 39,0 71,-33 71,-73 0,-4 0,-7 -1,-10 4,-2 -392,-629 -436,-732 -55,-132 -50,-224 -17,-259 76,260 246,575 502,981 -1,0 -1,0 -1,0l0 0c79,132 153,255 224,381 -1,0 -1,0 -1,0 5,9 10,18 15,27 -172,92 -283,246 -283,399 0,129 61,231 165,316 -81,163 -141,344 -163,554zm725 1978l418 440 419 440 -837 0 -837 0 418 -440 419 -440zm695 -880c-101,96 -195,231 -140,320 33,54 53,147 42,207 -4,23 82,-101 96,-92 19,12 5,144 10,169 0,0 60,59 150,-47l332 396c0,0 -312,-157 -320,142 -12,160 104,93 107,53 2,-40 37,-115 170,-58 133,57 115,91 115,91 0,0 25,137 -95,159 -113,22 -92,55 -81,55 11,0 10,35 77,50 68,15 176,-28 202,-59 26,-31 -9,-170 0,-187 9,-17 144,74 159,123 15,49 -10,93 8,135 17,42 77,71 106,-33 29,-104 21,-171 -47,-197 -68,-25 -68,-62 -68,-62 0,0 -10,-58 26,-41 36,17 68,-29 134,44 66,73 103,125 107,128 4,4 46,-83 13,-143 -33,-60 -30,-83 -81,-110 -51,-26 -154,-19 -154,-19 -75,-49 -127,-75 -202,-124l-90 1 -396 -605 197 -69c57,-37 -119,-89 -171,-82 -64,-110 -32,-147 -206,-145zm-1378 0c101,96 195,231 140,320 -33,54 -53,147 -42,207 4,23 -83,-101 -96,-92 -19,12 -5,144 -10,169 0,0 -60,59 -150,-47l-332 396c0,0 312,-157 320,142 12,160 -104,93 -107,53 -2,-40 -37,-115 -170,-58 -133,57 -115,91 -115,91 0,0 -25,137 95,159 113,22 92,55 81,55 -11,0 -10,35 -77,50 -68,15 -176,-28 -202,-59 -26,-31 9,-170 0,-187 -9,-17 -144,74 -159,123 -15,49 10,93 -8,135 -17,42 -77,71 -106,-33 -29,-104 -21,-171 47,-197 68,-25 68,-62 68,-62 0,0 10,-58 -26,-41 -36,17 -68,-29 -134,44 -66,73 -103,125 -107,128 -4,4 -46,-83 -13,-143 33,-60 30,-83 81,-110 51,-26 154,-19 154,-19 75,-49 127,-75 202,-124l90 1 396 -605 -197 -69c-57,-37 119,-89 171,-82 64,-110 32,-147 206,-145zm682 994l325 344 325 343 -650 0 -651 0 326 -343 325 -344zm1697 1407c-22,34 -52,62 -89,83 -52,30 -104,37 -155,21 -51,-17 -96,-55 -135,-116 -40,-60 -56,-115 -49,-165 7,-50 36,-89 88,-119 32,-19 69,-33 111,-43l49 75 -31 18 -3 -4c-14,-22 -26,-34 -36,-37 -23,-5 -48,-1 -73,14 -31,18 -45,46 -43,84 2,38 20,84 55,136 35,54 70,89 107,105 36,17 73,14 110,-8 26,-15 50,-41 71,-78l23 34zm6 -189l25 46c12,23 22,37 29,43 5,4 11,3 18,-5 2,-1 4,-3 8,-6l3 -4 22 19 -67 72 -22 -18 3 -4c8,-10 12,-18 11,-24 -1,-5 -10,-22 -26,-51l-192 -344 18 -19 380 142c32,11 51,17 56,17 6,0 14,-4 24,-13l3 -3 22 19 -105 113 -22 -19 3 -3c13,-17 17,-27 12,-32 -4,-4 -20,-11 -47,-21l-50 -19 -106 114zm-16 -28l90 -97 -182 -67 92 164zm-235 423l-141 82 -16 -25 4 -3c15,-9 22,-18 22,-24 -1,-7 -8,-22 -23,-45l-153 -237c-16,-23 -26,-37 -32,-40 -6,-3 -17,-1 -33,7l-5 2 -16 -24 142 -81 16 24 -4 3c-15,10 -22,18 -22,24 0,7 8,22 23,45l153 237c15,23 26,37 32,40 6,3 17,1 33,-7l5 -2 15 24zm188 -809l64 -104 319 57 -213 -231 57 -94 26 13 -3 5c-7,15 -9,25 -6,31 4,5 18,15 43,28l250 135c25,13 41,20 48,20 7,0 15,-7 25,-20l3 -4 25 14 -74 122 -26 -14 2 -4c7,-12 8,-21 4,-26 -4,-5 -18,-15 -43,-28l-244 -132 219 248 -12 21 -355 -65 262 141c25,14 40,20 47,21 7,1 14,-5 22,-16l3 -4 26 14 -57 94 -26 -14 2 -4c7,-15 10,-25 6,-31 -3,-5 -17,-15 -42,-28l-251 -135c-25,-14 -40,-20 -47,-20 -7,0 -15,7 -25,20l-3 4 -26 -14zm753 -435l-412 18c-37,1 -57,3 -60,4 -3,1 -8,9 -14,23l-2 4 -28 -8 47 -150 29 8 -1 5c-2,6 -4,12 -5,18 -2,6 1,10 9,12 7,2 23,3 51,2l265 -10 -217 -143c-4,-3 -12,-8 -23,-14 -11,-7 -18,-11 -21,-11 -8,-2 -13,1 -16,11l-5 13 -1 4 -29 -8 31 -98 29 8 -1 5c-1,4 -2,8 -3,10 -2,8 -1,14 3,18 4,5 19,16 45,33l337 223 -8 23zm46 -271l-94 -15 6 -34 7 1c27,3 45,2 54,-4 17,-11 28,-27 31,-46 4,-18 -1,-34 -14,-48 -13,-14 -31,-23 -55,-26 -19,-3 -35,-3 -48,2 -12,5 -27,16 -45,33l-20 20c-52,50 -103,72 -152,64 -39,-6 -68,-22 -87,-46 -20,-24 -26,-54 -20,-88 5,-27 17,-57 37,-89l91 15 -7 34 -5 0c-29,-4 -47,-3 -55,0 -17,9 -27,23 -30,40 -3,15 2,28 14,41 12,12 29,20 49,23 15,3 29,1 41,-4 12,-5 27,-15 44,-32l22 -20c32,-30 59,-50 81,-59 23,-9 48,-11 77,-6 41,6 72,23 93,50 20,28 27,61 19,101 -5,28 -16,59 -34,93zm-3859 1275l-73 84c-18,21 -28,34 -30,40 -2,7 3,14 13,24l3 3 -18 22 -119 -92 19 -22 4 3c15,9 25,13 31,11 7,-3 19,-14 38,-35l184 -210c18,-21 27,-34 29,-41 1,-6 -5,-15 -18,-27l-3 -3 19 -21 86 67 37 27 19 13c61,48 66,100 15,159 -21,23 -43,40 -67,49 -24,9 -50,11 -76,5l-25 139c-5,33 -8,53 -7,59 1,7 7,15 17,24l4 3 -19 22 -88 -68 50 -215 -25 -20zm20 -23l11 9c21,16 44,22 69,17 25,-5 48,-20 70,-45 39,-45 40,-82 2,-111l-22 -18 -130 148zm260 447l44 -392c3,-35 5,-54 4,-57 -1,-4 -8,-9 -22,-17l-5 -2 13 -26 153 68 -13 26 -4 -2c-7,-3 -13,-5 -19,-8 -6,-2 -11,0 -15,8 -3,5 -6,21 -9,47l-29 252 184 -183c4,-4 10,-11 19,-20 9,-10 14,-16 15,-18 4,-7 0,-13 -10,-17l-13 -6 -4 -3 13 -25 99 44 -12 25 -5 -1c-4,-2 -8,-3 -11,-4 -8,-3 -14,-3 -19,0 -6,3 -20,16 -42,38l-289 283 -23 -10zm406 -319l125 33 19 311 191 -256 113 30 -9 28 -4 -1c-18,-3 -30,-3 -35,2 -4,4 -11,20 -19,46l-80 267c-7,26 -11,43 -9,49 2,6 11,12 28,18l5 2 -9 27 -147 -39 8 -27 5 1c15,3 24,2 29,-3 4,-5 10,-21 18,-47l78 -260 -206 266 -25 -7 -20 -345 -83 278c-8,26 -11,42 -10,49 1,6 8,12 22,17l5 1 -9 28 -112 -30 8 -28 5 1c17,3 29,3 34,-2 5,-4 11,-20 19,-46l80 -267c8,-26 11,-43 9,-49 -2,-6 -11,-12 -28,-18l-4 -2 8 -27zm1006 578l-320 6 0 -20 5 0c25,-2 39,-5 42,-9 3,-4 6,-21 5,-52l-3 -58 -152 2 -33 59c-5,10 -9,18 -13,25 -7,15 -11,23 -11,26 0,6 7,8 22,8 3,0 9,0 18,1l7 0 1 19 -111 2 -1 -19 7 -1c9,0 16,-3 20,-8 4,-5 14,-22 30,-52l196 -381 255 -4 3 84 -32 0 -1 -6c-3,-27 -5,-43 -8,-45 -3,-2 -19,-3 -47,-3l-81 1 8 183 69 -1c18,0 29,-1 32,-3 4,-2 6,-12 6,-30l0 -5 21 -1 5 104 -21 0 -1 -6c-1,-15 -4,-24 -8,-27 -4,-3 -15,-4 -33,-4l-69 1 6 134c1,33 4,29 10,44 3,8 5,9 28,8l46 0c34,-1 53,-3 58,-7 5,-3 8,-17 8,-40l0 -6 33 -1 4 82zm-409 -162l137 -3 -10 -243 -127 246zm498 143l-7 -28 5 -1c17,-5 26,-11 28,-17 3,-6 1,-22 -5,-49l-62 -268c-6,-27 -12,-42 -16,-47 -5,-4 -16,-6 -34,-4l-5 1 -6 -28 123 -25 54 -12 20 -4c59,-12 108,-3 148,27 40,30 68,80 84,148 16,70 13,128 -10,177 -22,48 -61,77 -115,88l-202 42zm24 -436l75 325c5,24 12,39 20,44 7,5 23,5 48,0 40,-9 67,-31 80,-69 13,-37 12,-88 -4,-154 -15,-66 -37,-111 -66,-134 -29,-23 -71,-29 -125,-18l-28 6zm541 287l-156 53 -10 -27 5 -2c16,-7 25,-14 26,-20 1,-7 -3,-23 -13,-49l-100 -260c-10,-26 -17,-41 -22,-45 -6,-5 -17,-4 -34,0l-5 1 -10 -27 155 -52 11 26 -5 2c-16,7 -25,14 -26,20 -1,7 3,23 13,49l99 260c10,26 18,41 23,45 6,5 17,4 34,0l5 -1 10 27zm85 -272l59 112c16,27 26,42 30,44 4,3 17,0 38,-8l4 -1 14 25 -155 72 -13 -26 4 -2c15,-9 23,-16 24,-23 0,-7 -6,-22 -19,-47l-130 -249c-13,-25 -22,-39 -28,-42 -5,-4 -17,-3 -34,3l-4 2 -14 -25 257 -119 40 76 -35 17 -3 -5c-5,-9 -8,-15 -10,-18 -6,-11 -11,-18 -17,-19 -6,-1 -16,2 -31,9l-75 34 86 166 50 -23c19,-9 29,-14 32,-17 2,-2 1,-7 -3,-14 -1,-1 -3,-6 -6,-14l-3 -5 25 -12 47 89 -25 12 -3 -5c-4,-6 -6,-9 -7,-11 -3,-7 -8,-11 -13,-11 -5,0 -15,4 -31,12l-51 23zm-3367 -1160l321 -248c28,-22 43,-35 45,-38 2,-3 1,-11 -4,-26l-1 -4 28 -10 58 148 -28 9 -2 -4c-3,-6 -5,-12 -8,-17 -2,-6 -8,-8 -16,-5 -6,2 -19,11 -41,28l-207 158 266 -8c5,-1 15,-1 28,-2 13,-1 21,-2 24,-3 7,-3 9,-9 5,-18l-4 -13 -2 -5 28 -9 38 96 -28 10 -2 -4c-2,-4 -4,-8 -5,-10 -3,-7 -8,-12 -14,-13 -6,-1 -25,-1 -57,-1l-413 12 -9 -23zm579 182l-35 -49c-9,-13 -17,-20 -24,-21 -7,-1 -22,6 -46,21l-8 4 -21 -30 83 -52 199 285 -84 52 -21 -31 7 -5c24,-15 37,-25 39,-32 2,-6 -2,-16 -11,-29l-34 -49 -297 183c-26,17 -40,28 -42,32 -2,5 2,16 13,35l2 4 -25 15 -97 -140 25 -15 3 3c13,16 23,24 30,24 7,1 22,-7 47,-22l297 -183zm-474 -663l-131 16c-31,5 -49,8 -53,12 -4,3 -5,15 -4,35l0 5 -30 4 -21 -159 30 -4 1 5c3,16 8,25 15,28 6,2 24,2 52,-1l289 -35c29,-3 46,-7 51,-10 5,-4 8,-14 7,-31l0 -5 30 -3 35 264 -89 10 -5 -36 6 -1c10,-2 17,-3 21,-3 13,-2 21,-5 24,-9 3,-5 4,-15 2,-30l-11 -78 -192 23 7 51c3,20 5,31 7,33 1,3 6,4 15,3 1,0 6,-1 15,-1l6 -1 4 26 -103 12 -4 -26 6 -1c6,-1 11,-1 13,-2 8,-1 13,-3 15,-8 1,-4 1,-15 -1,-31l-7 -52zm385 1287l198 -345c17,-31 26,-48 27,-51 0,-3 -4,-11 -14,-23l-3 -4 22 -19 113 117 -22 19 -4 -3c-4,-5 -9,-9 -14,-14 -4,-4 -10,-4 -16,1 -5,5 -14,18 -27,41l-129 221 243 -103c6,-2 14,-6 26,-11 12,-6 19,-10 21,-12 6,-5 5,-11 -2,-19l-10 -10 -3 -4 22 -19 74 76 -22 19 -3 -3c-4,-3 -7,-5 -9,-7 -6,-6 -12,-8 -18,-7 -6,1 -24,8 -54,20l-378 158 -18 -18z"/>
   </g>
   <g>
    <path class="fil5" d="M14666 1270l0 -243 125 0c23,0 41,2 53,6 12,4 22,11 30,22 7,11 11,24 11,39 0,14 -3,26 -9,35 -5,10 -13,18 -23,24 -7,4 -16,7 -27,10 9,3 16,6 20,9 2,2 6,6 12,13 5,6 8,11 10,15l37 70 -85 0 -40 -74c-5,-10 -10,-16 -14,-19 -5,-4 -11,-6 -18,-6l-7 0 0 99 -75 0zm75 -144l32 0c3,0 10,-2 20,-4 5,-1 9,-3 12,-7 3,-4 5,-9 5,-14 0,-8 -3,-14 -8,-19 -5,-4 -14,-6 -28,-6l-33 0 0 50z"/>
    <path class="fil6" d="M14775 871c151,0 274,123 274,274 0,152 -123,275 -274,275 -152,0 -275,-123 -275,-275 0,-151 123,-274 275,-274zm0 64c116,0 210,94 210,210 0,117 -94,211 -210,211 -116,0 -211,-94 -211,-211 0,-116 95,-210 211,-210z"/>
   </g>
  </g>
 </g>
</svg>
